<svg xmlns="http://www.w3.org/2000/svg" viewBox="0 0 64 64" role="img" aria-labelledby="title">
  <title id="title">JC monogram favicon</title>
  <rect width="64" height="64" rx="18" fill="#0d2948"/>
  <path d="M17 19h16v6h-5v15c0 7-4.5 11-11.5 11-3.5 0-6.5-1-8.8-2.8l3.2-5.3c1.5 1.1 3.1 1.7 5 1.7 3.2 0 5.1-1.8 5.1-5.3V25h-4v-6Z" fill="#ffffff"/>
  <path d="M43.5 51c-9.7 0-16.7-6.9-16.7-16.2 0-9.4 7.1-16.2 16.9-16.2 5.4 0 9.9 1.9 12.8 5.4l-4.7 4.4c-2.1-2.4-4.6-3.6-7.7-3.6-5.8 0-9.9 4.1-9.9 10s4.1 10 9.9 10c3.1 0 5.6-1.2 7.7-3.7l4.7 4.4c-2.9 3.6-7.4 5.5-13 5.5Z" fill="#c88b2c"/>
</svg>
