<svg xmlns="http://www.w3.org/2000/svg" viewBox="0 0 900 900" role="img" aria-labelledby="title desc">
  <title id="title">Professional headshot of Jonathan Curtis</title>
  <desc id="desc">A polished head-and-shoulders portrait inspired by the supplied professional photo, with a blue studio background, dark blazer, and light check shirt.</desc>
  <defs>
    <radialGradient id="bg" cx="38%" cy="42%" r="70%">
      <stop offset="0" stop-color="#75b8ee"/>
      <stop offset=".45" stop-color="#2f6fae"/>
      <stop offset="1" stop-color="#102846"/>
    </radialGradient>
    <linearGradient id="jacket" x1="0" x2="1" y1="0" y2="1">
      <stop stop-color="#0f243b"/>
      <stop offset="1" stop-color="#071421"/>
    </linearGradient>
    <linearGradient id="skin" x1="0" x2="0" y1="0" y2="1">
      <stop stop-color="#f0c4b3"/>
      <stop offset="1" stop-color="#d99a84"/>
    </linearGradient>
    <filter id="soft" x="-20%" y="-20%" width="140%" height="140%">
      <feGaussianBlur stdDeviation="10"/>
    </filter>
    <clipPath id="circle">
      <circle cx="450" cy="450" r="430"/>
    </clipPath>
  </defs>
  <g clip-path="url(#circle)">
    <rect width="900" height="900" fill="url(#bg)"/>
    <path d="M-35 810c136-173 279-255 430-246h110c154-5 299 78 435 246v125H-35z" fill="url(#jacket)"/>
    <path d="M360 585h180l45 270H318z" fill="#f6fbff"/>
    <path d="M361 595l89 240 89-240c-23 20-51 31-89 31s-66-11-89-31z" fill="#d9a18c"/>
    <path d="M264 868l95-281 92 281zM636 868l-96-281-91 281z" fill="#122b45" opacity=".95"/>
    <path d="M330 664h240" stroke="#b3c8dd" stroke-width="4" opacity=".7"/>
    <path d="M335 718h230" stroke="#b3c8dd" stroke-width="4" opacity=".55"/>
    <path d="M376 600v260M430 611v257M484 611v257M538 600v260" stroke="#a8bdd3" stroke-width="3" opacity=".55"/>
    <path d="M288 350c-26 5-45 34-36 79 8 42 35 70 62 65zm324 0c26 5 45 34 36 79-8 42-35 70-62 65z" fill="#d99a84"/>
    <path d="M293 342c0-118 68-215 157-215s157 97 157 215v94c0 112-70 194-157 194s-157-82-157-194z" fill="url(#skin)"/>
    <path d="M277 337c12-136 80-231 176-231 91 0 170 80 178 230-23-22-39-60-42-102-34 20-80 24-134 15-65-10-116 2-154 37-7 19-14 36-24 51z" fill="#1c1715"/>
    <path d="M297 291c30-52 92-79 165-69 64 9 102 2 130-20-26-70-79-110-143-110-97 0-171 81-181 205z" fill="#251f1b"/>
    <path d="M355 382c25-19 59-19 83-2M465 380c28-18 61-17 86 3" stroke="#2a201c" stroke-width="16" stroke-linecap="round" opacity=".75"/>
    <ellipse cx="395" cy="420" rx="15" ry="11" fill="#f7fbff"/>
    <ellipse cx="510" cy="420" rx="15" ry="11" fill="#f7fbff"/>
    <circle cx="398" cy="421" r="7" fill="#245b84"/>
    <circle cx="507" cy="421" r="7" fill="#245b84"/>
    <circle cx="401" cy="418" r="3" fill="white"/>
    <circle cx="510" cy="418" r="3" fill="white"/>
    <path d="M453 424c-6 34-16 58-31 74 16 11 38 12 56 2" fill="none" stroke="#c98778" stroke-width="7" stroke-linecap="round"/>
    <path d="M374 526c36 39 113 39 152 0-20 68-128 70-152 0z" fill="#8d3d3c"/>
    <path d="M392 531c30 18 79 19 112 0-17 24-88 25-112 0z" fill="#fff" opacity=".95"/>
    <ellipse cx="337" cy="461" rx="28" ry="18" fill="#e5aa98" opacity=".38" filter="url(#soft)"/>
    <ellipse cx="565" cy="461" rx="28" ry="18" fill="#e5aa98" opacity=".38" filter="url(#soft)"/>
    <path d="M293 406c-7-24-19-80-15-109M607 406c7-24 19-80 15-109" stroke="#171312" stroke-width="18" stroke-linecap="round"/>
  </g>
  <circle cx="450" cy="450" r="430" fill="none" stroke="#ffffff" stroke-opacity=".55" stroke-width="14"/>
</svg>
